<svg viewBox="0 0 80 72" preserveAspectRatio="none" fill="none" xmlns="http://www.w3.org/2000/svg">
<g id="svg-seven">
<path id="Rectangle 1" d="M5 1H75C77.2091 1 79 2.79086 79 5V67C79 69.2091 77.2091 71 75 71H5C2.79086 71 1 69.2091 1 67V5C1 2.79086 2.79086 1 5 1Z" stroke="#4A2525" stroke-width="2"/>
<path id="7" d="M42.4104 42V33.12C42.4104 32.8213 42.3891 32.656 42.3464 32.624C42.3144 32.5813 42.1491 32.56 41.8504 32.56H34.9224V30.464H42.2984C42.9064 30.464 43.4237 30.6827 43.8504 31.12C44.2877 31.5467 44.5064 32.064 44.5064 32.672V42H42.4104Z" fill="#FF5E5E"/>
</g>
</svg>
