<svg viewBox="0 0 168 72" preserveAspectRatio="none" fill="none" xmlns="http://www.w3.org/2000/svg">
<g id="svg-zero">
<path id="Rectangle 1" d="M5 1H163C165.209 1 167 2.79086 167 5V67C167 69.2091 165.209 71 163 71H5C2.79086 71 1 69.2091 1 67V5C1 2.79086 2.79086 1 5 1Z" stroke="#4A2525" stroke-width="2"/>
<path id="0" d="M79.5831 42C78.9751 42 78.4524 41.7653 78.0151 41.296C77.5884 40.8267 77.3751 40.2933 77.3751 39.696V32.736C77.3751 32.1173 77.5884 31.5893 78.0151 31.152C78.4524 30.704 78.9751 30.48 79.5831 30.48H86.5751C87.1831 30.48 87.7004 30.704 88.1271 31.152C88.5644 31.5893 88.7831 32.1173 88.7831 32.736V39.696C88.7831 40.2933 88.5644 40.8267 88.1271 41.296C87.7004 41.7653 87.1831 42 86.5751 42H79.5831ZM80.4311 39.792H86.1271C86.4258 39.792 86.5911 39.776 86.6231 39.744C86.6658 39.7013 86.6871 39.5307 86.6871 39.232V34.576L80.4311 39.792ZM79.4711 37.84L85.7271 32.624H80.0311C79.7324 32.624 79.5618 32.6453 79.5191 32.688C79.4871 32.72 79.4711 32.8853 79.4711 33.184V37.84Z" fill="#FF5E5E"/>
</g>
</svg>
