<svg viewBox="0 0 80 72" preserveAspectRatio="none" fill="none" xmlns="http://www.w3.org/2000/svg">
<g id="svg-nine">
<path id="Rectangle 1" d="M5.33738 1H74.3497C76.5589 1 78.3497 2.79086 78.3497 5V67C78.3497 69.2091 76.5589 71 74.3497 71H5.33737C3.12824 71 1.33738 69.2091 1.33738 67V5C1.33738 2.79086 3.12824 1 5.33738 1Z" stroke="#4A2525" stroke-width="2"/>
<path id="9" d="M35.5076 42C34.9743 42 34.4996 41.7973 34.0836 41.392C33.6676 40.9867 33.4009 40.4907 33.2836 39.904H42.0516C42.3396 39.904 42.5049 39.888 42.5476 39.856C42.5903 39.8133 42.6116 39.6427 42.6116 39.344V37.936C42.6116 37.648 42.5903 37.488 42.5476 37.456C42.5049 37.4133 42.3396 37.392 42.0516 37.392H35.5076C34.8889 37.392 34.3609 37.1733 33.9236 36.736C33.4969 36.2987 33.2836 35.776 33.2836 35.168V32.688C33.2836 32.0693 33.4969 31.5467 33.9236 31.12C34.3609 30.6933 34.8889 30.48 35.5076 30.48H42.4996C43.1076 30.48 43.6249 30.6933 44.0516 31.12C44.4889 31.5467 44.7076 32.0693 44.7076 32.688V39.792C44.7076 40.4 44.4889 40.9227 44.0516 41.36C43.6249 41.7867 43.1076 42 42.4996 42H35.5076ZM35.9556 35.28H42.6116V33.136C42.6116 32.8373 42.5903 32.672 42.5476 32.64C42.5049 32.5973 42.3396 32.576 42.0516 32.576H35.9556C35.6569 32.576 35.4863 32.5973 35.4436 32.64C35.4116 32.672 35.3956 32.8373 35.3956 33.136V34.72C35.3956 35.0187 35.4116 35.1893 35.4436 35.232C35.4863 35.264 35.6569 35.28 35.9556 35.28Z" fill="#FF5E5E"/>
</g>
</svg>
