<svg viewBox="0 0 80 72" preserveAspectRatio="none" fill="none" xmlns="http://www.w3.org/2000/svg">
<g id="svg-three">
<path id="Rectangle 1" d="M5.33738 1H74.3497C76.5589 1 78.3497 2.79086 78.3497 5V67C78.3497 69.2091 76.5589 71 74.3497 71H5.33737C3.12824 71 1.33738 69.2091 1.33738 67V5C1.33738 2.79086 3.12824 1 5.33738 1Z" stroke="#4A2525" stroke-width="2"/>
<path id="3" d="M35.5232 41C34.9046 41 34.3766 40.7867 33.9392 40.36C33.5126 39.9227 33.2992 39.4 33.2992 38.792V38.104H35.3952V38.344C35.3952 38.6427 35.4112 38.8133 35.4432 38.856C35.4859 38.888 35.6566 38.904 35.9552 38.904H42.0672C42.3552 38.904 42.5206 38.888 42.5632 38.856C42.6059 38.8133 42.6272 38.6427 42.6272 38.344V36.776C42.6272 36.488 42.6059 36.3227 42.5632 36.28C42.5206 36.2373 42.3552 36.216 42.0672 36.216H35.2832V34.12H41.6032C41.9019 34.12 42.0672 34.104 42.0992 34.072C42.1419 34.0293 42.1632 33.8587 42.1632 33.56V32.136C42.1632 31.8373 42.1419 31.672 42.0992 31.64C42.0672 31.5973 41.9019 31.576 41.6032 31.576H35.9552C35.6566 31.576 35.4859 31.5973 35.4432 31.64C35.4112 31.672 35.3952 31.8373 35.3952 32.136V32.52H33.2992V31.688C33.2992 31.0693 33.5126 30.5467 33.9392 30.12C34.3766 29.6933 34.9046 29.48 35.5232 29.48H42.0512C42.6699 29.48 43.1926 29.6933 43.6192 30.12C44.0459 30.5467 44.2592 31.0693 44.2592 31.688V34.024C44.2592 34.152 44.2486 34.2853 44.2272 34.424C44.2059 34.552 44.1739 34.6747 44.1312 34.792C44.3232 34.9947 44.4672 35.2347 44.5632 35.512C44.6699 35.7787 44.7232 36.0507 44.7232 36.328V38.792C44.7232 39.4 44.5046 39.9227 44.0672 40.36C43.6406 40.7867 43.1232 41 42.5152 41H35.5232Z" fill="#FF5E5E"/>
</g>
</svg>
