<svg viewBox="0 0 80 72" preserveAspectRatio="none" fill="none" xmlns="http://www.w3.org/2000/svg">
<g id="svg-five">
<path id="Rectangle 1" d="M5.16869 1H74.181C76.3902 1 78.181 2.79086 78.181 5V67C78.181 69.2091 76.3902 71 74.181 71H5.16868C2.95954 71 1.16869 69.2091 1.16869 67V5C1.16869 2.79086 2.95955 1 5.16869 1Z" stroke="#4A2525" stroke-width="2"/>
<path id="5" d="M35.3692 42C34.7612 42 34.2385 41.7867 33.8012 41.36C33.3745 40.9227 33.1612 40.4 33.1612 39.792V39.04H35.2572V39.344C35.2572 39.6427 35.2732 39.8133 35.3052 39.856C35.3478 39.888 35.5185 39.904 35.8172 39.904H41.9132C42.2118 39.904 42.3772 39.888 42.4092 39.856C42.4518 39.8133 42.4732 39.6427 42.4732 39.344V37.744C42.4732 37.4453 42.4518 37.28 42.4092 37.248C42.3772 37.2053 42.2118 37.184 41.9132 37.184H33.1612V30.48H44.5692V32.576H35.8172C35.5185 32.576 35.3478 32.5973 35.3052 32.64C35.2732 32.672 35.2572 32.8373 35.2572 33.136V34.512C35.2572 34.8107 35.2732 34.9813 35.3052 35.024C35.3478 35.056 35.5185 35.072 35.8172 35.072H42.3612C42.9692 35.072 43.4865 35.2907 43.9132 35.728C44.3505 36.1547 44.5692 36.672 44.5692 37.28V39.792C44.5692 40.4 44.3505 40.9227 43.9132 41.36C43.4865 41.7867 42.9692 42 42.3612 42H35.3692Z" fill="#FF5E5E"/>
</g>
</svg>
