<svg viewBox="0 0 80 72" preserveAspectRatio="none" fill="none" xmlns="http://www.w3.org/2000/svg">
<g id="svg-eight">
<path id="Rectangle 1" d="M5.16869 1H74.181C76.3902 1 78.181 2.79086 78.181 5V67C78.181 69.2091 76.3902 71 74.181 71H5.16868C2.95954 71 1.16869 69.2091 1.16869 67V5C1.16869 2.79086 2.95955 1 5.16869 1Z" stroke="#4A2525" stroke-width="2"/>
<path id="8" d="M35.3379 42C34.7299 42 34.2073 41.7867 33.7699 41.36C33.3433 40.9227 33.1299 40.4 33.1299 39.792V37.28C33.1299 37.088 33.1619 36.896 33.2259 36.704C33.2899 36.5013 33.3699 36.3093 33.4659 36.128C33.3699 35.9467 33.2899 35.76 33.2259 35.568C33.1619 35.3653 33.1299 35.1627 33.1299 34.96V32.688C33.1299 32.0693 33.3433 31.5467 33.7699 31.12C34.2073 30.6933 34.7299 30.48 35.3379 30.48H42.3299C42.8633 30.48 43.3379 30.656 43.7539 31.008C44.1806 31.36 44.4419 31.7867 44.5379 32.288V34.96C44.5379 35.152 44.5059 35.3493 44.4419 35.552C44.3886 35.7547 44.3086 35.9467 44.2019 36.128C44.3193 36.3093 44.4046 36.496 44.4579 36.688C44.5113 36.88 44.5379 37.0773 44.5379 37.28V39.792C44.5379 40.4 44.3193 40.9227 43.8819 41.36C43.4553 41.7867 42.9379 42 42.3299 42H35.3379ZM35.7859 39.904H41.8819C42.1806 39.904 42.3459 39.888 42.3779 39.856C42.4206 39.8133 42.4419 39.6427 42.4419 39.344V37.744C42.4419 37.4453 42.4206 37.28 42.3779 37.248C42.3459 37.2053 42.1806 37.184 41.8819 37.184H35.7859C35.4873 37.184 35.3166 37.2053 35.2739 37.248C35.2419 37.28 35.2259 37.4453 35.2259 37.744V39.344C35.2259 39.6427 35.2419 39.8133 35.2739 39.856C35.3166 39.888 35.4873 39.904 35.7859 39.904ZM35.7859 35.248H41.8819C42.1806 35.248 42.3459 35.2267 42.3779 35.184C42.4206 35.1413 42.4419 34.976 42.4419 34.688V33.152C42.4419 32.8533 42.4206 32.688 42.3779 32.656C42.3459 32.6133 42.1806 32.592 41.8819 32.592H35.7859C35.4873 32.592 35.3166 32.6133 35.2739 32.656C35.2419 32.688 35.2259 32.8533 35.2259 33.152V34.688C35.2259 34.976 35.2419 35.1413 35.2739 35.184C35.3166 35.2267 35.4873 35.248 35.7859 35.248Z" fill="#FF5E5E"/>
</g>
</svg>
