<svg viewBox="0 0 168 72" preserveAspectRatio="none" fill="none" xmlns="http://www.w3.org/2000/svg">
<g id="svg-clear">
<path id="Rectangle 1" d="M5 1H163C165.209 1 167 2.79086 167 5V67C167 69.2091 165.209 71 163 71H5C2.79086 71 1 69.2091 1 67V5C1 2.79086 2.79086 1 5 1Z" stroke="#4A2525" stroke-width="2"/>
<path id="AC" d="M72.1624 42V32.704C72.1624 32.096 72.381 31.5733 72.8184 31.136C73.2557 30.6987 73.7784 30.48 74.3864 30.48H81.4424C82.061 30.48 82.589 30.6987 83.0264 31.136C83.4637 31.5733 83.6824 32.096 83.6824 32.704V42H81.5544V38.128H74.2744V42H72.1624ZM74.2744 36.016H81.5544V33.168C81.5544 32.8693 81.533 32.704 81.4904 32.672C81.4477 32.6293 81.2824 32.608 80.9944 32.608H74.8344C74.5357 32.608 74.365 32.6293 74.3224 32.672C74.2904 32.704 74.2744 32.8693 74.2744 33.168V36.016ZM87.7294 42C87.1214 42 86.5987 41.7813 86.1614 41.344C85.724 40.9067 85.5054 40.384 85.5054 39.776V32.704C85.5054 32.096 85.724 31.5733 86.1614 31.136C86.5987 30.6987 87.1214 30.48 87.7294 30.48H96.9934V32.608H88.1774C87.8787 32.608 87.708 32.6293 87.6654 32.672C87.6334 32.704 87.6174 32.8693 87.6174 33.168V39.312C87.6174 39.6107 87.6334 39.7813 87.6654 39.824C87.708 39.856 87.8787 39.872 88.1774 39.872H96.9934V42H87.7294Z" fill="#FF5E5E"/>
</g>
</svg>
