<svg viewBox="0 0 80 72" preserveAspectRatio="none" fill="none" xmlns="http://www.w3.org/2000/svg">
<g id="svg-two">
<path id="Rectangle 1" d="M5.16869 1H74.181C76.3902 1 78.181 2.79086 78.181 5V67C78.181 69.2091 76.3902 71 74.181 71H5.16868C2.95954 71 1.16869 69.2091 1.16869 67V5C1.16869 2.79086 2.95955 1 5.16869 1Z" stroke="#4A2525" stroke-width="2"/>
<path id="2" d="M33.1612 41V36.584C33.1612 35.976 33.3745 35.4587 33.8012 35.032C34.2385 34.5947 34.7612 34.376 35.3692 34.376H41.9132C42.2118 34.376 42.3772 34.36 42.4092 34.328C42.4518 34.2853 42.4732 34.1147 42.4732 33.816V32.136C42.4732 31.8373 42.4518 31.672 42.4092 31.64C42.3772 31.5973 42.2118 31.576 41.9132 31.576H35.8172C35.5185 31.576 35.3478 31.5973 35.3052 31.64C35.2732 31.672 35.2572 31.8373 35.2572 32.136V32.552H33.1612V31.688C33.1612 31.0693 33.3745 30.5467 33.8012 30.12C34.2385 29.6933 34.7612 29.48 35.3692 29.48H42.3612C42.9692 29.48 43.4865 29.6933 43.9132 30.12C44.3505 30.5467 44.5692 31.0693 44.5692 31.688V34.28C44.5692 34.888 44.3505 35.4107 43.9132 35.848C43.4865 36.2747 42.9692 36.488 42.3612 36.488H35.8172C35.5185 36.488 35.3478 36.5093 35.3052 36.552C35.2732 36.584 35.2572 36.7493 35.2572 37.048V38.344C35.2572 38.6427 35.2732 38.8133 35.3052 38.856C35.3478 38.888 35.5185 38.904 35.8172 38.904H44.5692V41H33.1612Z" fill="#FF5E5E"/>
</g>
</svg>
