<svg viewBox="0 0 80 72" preserveAspectRatio="none" fill="none" xmlns="http://www.w3.org/2000/svg">
<g id="svg-six">
<path id="Rectangle 1" d="M5.33738 1H74.3497C76.5589 1 78.3497 2.79086 78.3497 5V67C78.3497 69.2091 76.5589 71 74.3497 71H5.33737C3.12824 71 1.33738 69.2091 1.33738 67V5C1.33738 2.79086 3.12824 1 5.33738 1Z" stroke="#4A2525" stroke-width="2"/>
<path id="6" d="M35.6181 42C35.0101 42 34.4874 41.7867 34.0501 41.36C33.6234 40.9227 33.4101 40.4 33.4101 39.792V32.688C33.4101 32.0693 33.6234 31.5467 34.0501 31.12C34.4874 30.6933 35.0101 30.48 35.6181 30.48H42.9941V32.576H36.0661C35.7674 32.576 35.5968 32.5973 35.5541 32.64C35.5221 32.672 35.5061 32.8373 35.5061 33.136V34.496C35.5061 34.7947 35.5221 34.9653 35.5541 35.008C35.5968 35.04 35.7674 35.056 36.0661 35.056H42.6101C43.2181 35.056 43.7354 35.2747 44.1621 35.712C44.5994 36.1387 44.8181 36.656 44.8181 37.264V39.792C44.8181 40.4 44.5994 40.9227 44.1621 41.36C43.7354 41.7867 43.2181 42 42.6101 42H35.6181ZM36.0661 39.904H42.1621C42.4608 39.904 42.6261 39.888 42.6581 39.856C42.7008 39.8133 42.7221 39.6427 42.7221 39.344V37.728C42.7221 37.4293 42.7008 37.264 42.6581 37.232C42.6261 37.1893 42.4608 37.168 42.1621 37.168H35.5061V39.344C35.5061 39.6427 35.5221 39.8133 35.5541 39.856C35.5968 39.888 35.7674 39.904 36.0661 39.904Z" fill="#FF5E5E"/>
</g>
</svg>
