<svg width="177" height="82" viewBox="0 0 177 82" fill="none" xmlns="http://www.w3.org/2000/svg">
<g id="svg-zero" filter="url(#filter0_d)">
<path id="Rectangle 1" d="M5 6C5 3.23857 7.23858 1 10 1H166.722C169.483 1 171.722 3.23858 171.722 6V68C171.722 70.7614 169.483 73 166.722 73H10C7.23858 73 5 70.7614 5 68V6Z" stroke="#4A2525" stroke-width="2"/>
<path id="0" d="M84.7545 43C84.1465 43 83.6239 42.7653 83.1865 42.296C82.7599 41.8267 82.5465 41.2933 82.5465 40.696V33.736C82.5465 33.1173 82.7599 32.5893 83.1865 32.152C83.6239 31.704 84.1465 31.48 84.7545 31.48H91.7465C92.3545 31.48 92.8719 31.704 93.2985 32.152C93.7359 32.5893 93.9545 33.1173 93.9545 33.736V40.696C93.9545 41.2933 93.7359 41.8267 93.2985 42.296C92.8719 42.7653 92.3545 43 91.7465 43H84.7545ZM85.6025 40.792H91.2985C91.5972 40.792 91.7625 40.776 91.7945 40.744C91.8372 40.7013 91.8585 40.5307 91.8585 40.232V35.576L85.6025 40.792ZM84.6425 38.84L90.8985 33.624H85.2025C84.9039 33.624 84.7332 33.6453 84.6905 33.688C84.6585 33.72 84.6425 33.8853 84.6425 34.184V38.84Z" fill="#FF5E5E"/>
</g>
<defs>
<filter id="filter0_d" x="0" y="0" width="176.722" height="82" filterUnits="userSpaceOnUse" color-interpolation-filters="sRGB">
<feFlood flood-opacity="0" result="BackgroundImageFix"/>
<feColorMatrix in="SourceAlpha" type="matrix" values="0 0 0 0 0 0 0 0 0 0 0 0 0 0 0 0 0 0 127 0"/>
<feOffset dy="4"/>
<feGaussianBlur stdDeviation="2"/>
<feColorMatrix type="matrix" values="0 0 0 0 1 0 0 0 0 0.368627 0 0 0 0 0.368627 0 0 0 0.25 0"/>
<feBlend mode="normal" in2="BackgroundImageFix" result="effect1_dropShadow"/>
<feBlend mode="normal" in="SourceGraphic" in2="effect1_dropShadow" result="shape"/>
</filter>
</defs>
</svg>
