<svg width="177" height="82" viewBox="0 0 177 82" fill="none" xmlns="http://www.w3.org/2000/svg">
<g id="svg-clear" filter="url(#filter0_d)">
<path id="Rectangle 1" d="M5 6C5 3.23857 7.23858 1 10 1H166.722C169.483 1 171.722 3.23858 171.722 6V68C171.722 70.7614 169.483 73 166.722 73H10C7.23858 73 5 70.7614 5 68V6Z" stroke="#4A2525" stroke-width="2"/>
<path id="AC" d="M76.4916 43V33.704C76.4916 33.096 76.7102 32.5733 77.1476 32.136C77.5849 31.6987 78.1076 31.48 78.7156 31.48H85.7716C86.3902 31.48 86.9182 31.6987 87.3556 32.136C87.7929 32.5733 88.0116 33.096 88.0116 33.704V43H85.8836V39.128H78.6036V43H76.4916ZM78.6036 37.016H85.8836V34.168C85.8836 33.8693 85.8622 33.704 85.8196 33.672C85.7769 33.6293 85.6116 33.608 85.3236 33.608H79.1636C78.8649 33.608 78.6942 33.6293 78.6516 33.672C78.6196 33.704 78.6036 33.8693 78.6036 34.168V37.016ZM92.0586 43C91.4506 43 90.9279 42.7813 90.4906 42.344C90.0532 41.9067 89.8346 41.384 89.8346 40.776V33.704C89.8346 33.096 90.0532 32.5733 90.4906 32.136C90.9279 31.6987 91.4506 31.48 92.0586 31.48H101.323V33.608H92.5066C92.2079 33.608 92.0372 33.6293 91.9946 33.672C91.9626 33.704 91.9466 33.8693 91.9466 34.168V40.312C91.9466 40.6107 91.9626 40.7813 91.9946 40.824C92.0372 40.856 92.2079 40.872 92.5066 40.872H101.323V43H92.0586Z" fill="#FF5E5E"/>
</g>
<defs>
<filter id="filter0_d" x="0" y="0" width="176.722" height="82" filterUnits="userSpaceOnUse" color-interpolation-filters="sRGB">
<feFlood flood-opacity="0" result="BackgroundImageFix"/>
<feColorMatrix in="SourceAlpha" type="matrix" values="0 0 0 0 0 0 0 0 0 0 0 0 0 0 0 0 0 0 127 0"/>
<feOffset dy="4"/>
<feGaussianBlur stdDeviation="2"/>
<feColorMatrix type="matrix" values="0 0 0 0 1 0 0 0 0 0.368627 0 0 0 0 0.368627 0 0 0 0.25 0"/>
<feBlend mode="normal" in2="BackgroundImageFix" result="effect1_dropShadow"/>
<feBlend mode="normal" in="SourceGraphic" in2="effect1_dropShadow" result="shape"/>
</filter>
</defs>
</svg>
