<svg width="91" height="82" viewBox="0 0 91 82" fill="none" xmlns="http://www.w3.org/2000/svg">
<g id="svg-eight" filter="url(#filter0_d)">
<path id="Rectangle 1" d="M5.17079 6C5.17079 3.23857 7.40937 1 10.1708 1H80.7218C83.4832 1 85.7218 3.23858 85.7218 6V68C85.7218 70.7614 83.4832 73 80.7218 73H10.1708C7.40936 73 5.17079 70.7614 5.17079 68V6Z" stroke="#4A2525" stroke-width="2"/>
<path id="8" d="M41.8944 43C41.2864 43 40.7637 42.7867 40.3264 42.36C39.8997 41.9227 39.6864 41.4 39.6864 40.792V38.28C39.6864 38.088 39.7184 37.896 39.7824 37.704C39.8464 37.5013 39.9264 37.3093 40.0224 37.128C39.9264 36.9467 39.8464 36.76 39.7824 36.568C39.7184 36.3653 39.6864 36.1627 39.6864 35.96V33.688C39.6864 33.0693 39.8997 32.5467 40.3264 32.12C40.7637 31.6933 41.2864 31.48 41.8944 31.48H48.8864C49.4197 31.48 49.8944 31.656 50.3104 32.008C50.7371 32.36 50.9984 32.7867 51.0944 33.288V35.96C51.0944 36.152 51.0624 36.3493 50.9984 36.552C50.9451 36.7547 50.8651 36.9467 50.7584 37.128C50.8757 37.3093 50.9611 37.496 51.0144 37.688C51.0677 37.88 51.0944 38.0773 51.0944 38.28V40.792C51.0944 41.4 50.8757 41.9227 50.4384 42.36C50.0117 42.7867 49.4944 43 48.8864 43H41.8944ZM42.3424 40.904H48.4384C48.7371 40.904 48.9024 40.888 48.9344 40.856C48.9771 40.8133 48.9984 40.6427 48.9984 40.344V38.744C48.9984 38.4453 48.9771 38.28 48.9344 38.248C48.9024 38.2053 48.7371 38.184 48.4384 38.184H42.3424C42.0437 38.184 41.8731 38.2053 41.8304 38.248C41.7984 38.28 41.7824 38.4453 41.7824 38.744V40.344C41.7824 40.6427 41.7984 40.8133 41.8304 40.856C41.8731 40.888 42.0437 40.904 42.3424 40.904ZM42.3424 36.248H48.4384C48.7371 36.248 48.9024 36.2267 48.9344 36.184C48.9771 36.1413 48.9984 35.976 48.9984 35.688V34.152C48.9984 33.8533 48.9771 33.688 48.9344 33.656C48.9024 33.6133 48.7371 33.592 48.4384 33.592H42.3424C42.0437 33.592 41.8731 33.6133 41.8304 33.656C41.7984 33.688 41.7824 33.8533 41.7824 34.152V35.688C41.7824 35.976 41.7984 36.1413 41.8304 36.184C41.8731 36.2267 42.0437 36.248 42.3424 36.248Z" fill="#FF5E5E"/>
</g>
<defs>
<filter id="filter0_d" x="0.170792" y="0" width="90.551" height="82" filterUnits="userSpaceOnUse" color-interpolation-filters="sRGB">
<feFlood flood-opacity="0" result="BackgroundImageFix"/>
<feColorMatrix in="SourceAlpha" type="matrix" values="0 0 0 0 0 0 0 0 0 0 0 0 0 0 0 0 0 0 127 0"/>
<feOffset dy="4"/>
<feGaussianBlur stdDeviation="2"/>
<feColorMatrix type="matrix" values="0 0 0 0 1 0 0 0 0 0.368627 0 0 0 0 0.368627 0 0 0 0.25 0"/>
<feBlend mode="normal" in2="BackgroundImageFix" result="effect1_dropShadow"/>
<feBlend mode="normal" in="SourceGraphic" in2="effect1_dropShadow" result="shape"/>
</filter>
</defs>
</svg>
