<svg width="91" height="82" viewBox="0 0 91 82" fill="none" xmlns="http://www.w3.org/2000/svg">
<g id="svg-two" filter="url(#filter0_d)">
<path id="Rectangle 1" d="M5.17079 6C5.17079 3.23857 7.40937 1 10.1708 1H80.7218C83.4832 1 85.7218 3.23858 85.7218 6V68C85.7218 70.7614 83.4832 73 80.7218 73H10.1708C7.40936 73 5.17079 70.7614 5.17079 68V6Z" stroke="#4A2525" stroke-width="2"/>
<path id="2" d="M39.7176 42V37.584C39.7176 36.976 39.931 36.4587 40.3576 36.032C40.795 35.5947 41.3176 35.376 41.9256 35.376H48.4697C48.7683 35.376 48.9337 35.36 48.9657 35.328C49.0083 35.2853 49.0297 35.1147 49.0297 34.816V33.136C49.0297 32.8373 49.0083 32.672 48.9657 32.64C48.9337 32.5973 48.7683 32.576 48.4697 32.576H42.3736C42.075 32.576 41.9043 32.5973 41.8616 32.64C41.8296 32.672 41.8136 32.8373 41.8136 33.136V33.552H39.7176V32.688C39.7176 32.0693 39.931 31.5467 40.3576 31.12C40.795 30.6933 41.3176 30.48 41.9256 30.48H48.9177C49.5257 30.48 50.043 30.6933 50.4697 31.12C50.907 31.5467 51.1257 32.0693 51.1257 32.688V35.28C51.1257 35.888 50.907 36.4107 50.4697 36.848C50.043 37.2747 49.5257 37.488 48.9177 37.488H42.3736C42.075 37.488 41.9043 37.5093 41.8616 37.552C41.8296 37.584 41.8136 37.7493 41.8136 38.048V39.344C41.8136 39.6427 41.8296 39.8133 41.8616 39.856C41.9043 39.888 42.075 39.904 42.3736 39.904H51.1257V42H39.7176Z" fill="#FF5E5E"/>
</g>
<defs>
<filter id="filter0_d" x="0.170792" y="0" width="90.551" height="82" filterUnits="userSpaceOnUse" color-interpolation-filters="sRGB">
<feFlood flood-opacity="0" result="BackgroundImageFix"/>
<feColorMatrix in="SourceAlpha" type="matrix" values="0 0 0 0 0 0 0 0 0 0 0 0 0 0 0 0 0 0 127 0"/>
<feOffset dy="4"/>
<feGaussianBlur stdDeviation="2"/>
<feColorMatrix type="matrix" values="0 0 0 0 1 0 0 0 0 0.368627 0 0 0 0 0.368627 0 0 0 0.25 0"/>
<feBlend mode="normal" in2="BackgroundImageFix" result="effect1_dropShadow"/>
<feBlend mode="normal" in="SourceGraphic" in2="effect1_dropShadow" result="shape"/>
</filter>
</defs>
</svg>
