<svg width="91" height="82" viewBox="0 0 91 82" fill="none" xmlns="http://www.w3.org/2000/svg">
<g id="svg-three" filter="url(#filter0_d)">
<path id="Rectangle 1" d="M5.3416 6C5.3416 3.23857 7.58017 1 10.3416 1H80.8926C83.654 1 85.8926 3.23858 85.8926 6V68C85.8926 70.7614 83.654 73 80.8926 73H10.3416C7.58017 73 5.3416 70.7614 5.3416 68V6Z" stroke="#4A2525" stroke-width="2"/>
<path id="3" d="M42.0797 42C41.461 42 40.933 41.7867 40.4957 41.36C40.069 40.9227 39.8557 40.4 39.8557 39.792V39.104H41.9517V39.344C41.9517 39.6427 41.9677 39.8133 41.9997 39.856C42.0424 39.888 42.213 39.904 42.5117 39.904H48.6237C48.9117 39.904 49.077 39.888 49.1197 39.856C49.1624 39.8133 49.1837 39.6427 49.1837 39.344V37.776C49.1837 37.488 49.1624 37.3227 49.1197 37.28C49.077 37.2373 48.9117 37.216 48.6237 37.216H41.8397V35.12H48.1597C48.4584 35.12 48.6237 35.104 48.6557 35.072C48.6984 35.0293 48.7197 34.8587 48.7197 34.56V33.136C48.7197 32.8373 48.6984 32.672 48.6557 32.64C48.6237 32.5973 48.4584 32.576 48.1597 32.576H42.5117C42.213 32.576 42.0424 32.5973 41.9997 32.64C41.9677 32.672 41.9517 32.8373 41.9517 33.136V33.52H39.8557V32.688C39.8557 32.0693 40.069 31.5467 40.4957 31.12C40.933 30.6933 41.461 30.48 42.0797 30.48H48.6077C49.2264 30.48 49.749 30.6933 50.1757 31.12C50.6024 31.5467 50.8157 32.0693 50.8157 32.688V35.024C50.8157 35.152 50.805 35.2853 50.7837 35.424C50.7624 35.552 50.7304 35.6747 50.6877 35.792C50.8797 35.9947 51.0237 36.2347 51.1197 36.512C51.2264 36.7787 51.2797 37.0507 51.2797 37.328V39.792C51.2797 40.4 51.061 40.9227 50.6237 41.36C50.197 41.7867 49.6797 42 49.0717 42H42.0797Z" fill="#FF5E5E"/>
</g>
<defs>
<filter id="filter0_d" x="0.341599" y="0" width="90.551" height="82" filterUnits="userSpaceOnUse" color-interpolation-filters="sRGB">
<feFlood flood-opacity="0" result="BackgroundImageFix"/>
<feColorMatrix in="SourceAlpha" type="matrix" values="0 0 0 0 0 0 0 0 0 0 0 0 0 0 0 0 0 0 127 0"/>
<feOffset dy="4"/>
<feGaussianBlur stdDeviation="2"/>
<feColorMatrix type="matrix" values="0 0 0 0 1 0 0 0 0 0.368627 0 0 0 0 0.368627 0 0 0 0.25 0"/>
<feBlend mode="normal" in2="BackgroundImageFix" result="effect1_dropShadow"/>
<feBlend mode="normal" in="SourceGraphic" in2="effect1_dropShadow" result="shape"/>
</filter>
</defs>
</svg>
