<svg width="91" height="82" viewBox="0 0 91 82" fill="none" xmlns="http://www.w3.org/2000/svg">
<g id="svg-mult" filter="url(#filter0_d)">
<path id="Rectangle 1" d="M5.44904 6C5.44904 3.23857 7.68761 1 10.449 1H81C83.7614 1 86 3.23858 86 6V68C86 70.7614 83.7614 73 81 73H10.449C7.68761 73 5.44904 70.7614 5.44904 68V6Z" stroke="#4A2525" stroke-width="2"/>
<path id="x" d="M40.9215 43V42.44L44.3295 38.28L40.9215 34.28V33.72H43.1935L45.6895 36.664L48.1855 33.72H50.4575V34.28L47.0495 38.28L50.4575 42.44V43H48.2015L45.6895 39.928L43.1935 43H40.9215Z" fill="#FF5E5E"/>
</g>
<defs>
<filter id="filter0_d" x="0.449039" y="0" width="90.551" height="82" filterUnits="userSpaceOnUse" color-interpolation-filters="sRGB">
<feFlood flood-opacity="0" result="BackgroundImageFix"/>
<feColorMatrix in="SourceAlpha" type="matrix" values="0 0 0 0 0 0 0 0 0 0 0 0 0 0 0 0 0 0 127 0"/>
<feOffset dy="4"/>
<feGaussianBlur stdDeviation="2"/>
<feColorMatrix type="matrix" values="0 0 0 0 1 0 0 0 0 0.368627 0 0 0 0 0.368627 0 0 0 0.25 0"/>
<feBlend mode="normal" in2="BackgroundImageFix" result="effect1_dropShadow"/>
<feBlend mode="normal" in="SourceGraphic" in2="effect1_dropShadow" result="shape"/>
</filter>
</defs>
</svg>
