<svg width="91" height="82" viewBox="0 0 91 82" fill="none" xmlns="http://www.w3.org/2000/svg">
<g id="svg-nine" filter="url(#filter0_d)">
<path id="Rectangle 1" d="M5.3416 6C5.3416 3.23857 7.58017 1 10.3416 1H80.8926C83.654 1 85.8926 3.23858 85.8926 6V68C85.8926 70.7614 83.654 73 80.8926 73H10.3416C7.58017 73 5.3416 70.7614 5.3416 68V6Z" stroke="#4A2525" stroke-width="2"/>
<path id="9" d="M42.0641 43C41.5307 43 41.0561 42.7973 40.6401 42.392C40.2241 41.9867 39.9574 41.4907 39.8401 40.904H48.6081C48.8961 40.904 49.0614 40.888 49.1041 40.856C49.1467 40.8133 49.1681 40.6427 49.1681 40.344V38.936C49.1681 38.648 49.1467 38.488 49.1041 38.456C49.0614 38.4133 48.8961 38.392 48.6081 38.392H42.0641C41.4454 38.392 40.9174 38.1733 40.4801 37.736C40.0534 37.2987 39.8401 36.776 39.8401 36.168V33.688C39.8401 33.0693 40.0534 32.5467 40.4801 32.12C40.9174 31.6933 41.4454 31.48 42.0641 31.48H49.0561C49.6641 31.48 50.1814 31.6933 50.6081 32.12C51.0454 32.5467 51.2641 33.0693 51.2641 33.688V40.792C51.2641 41.4 51.0454 41.9227 50.6081 42.36C50.1814 42.7867 49.6641 43 49.0561 43H42.0641ZM42.5121 36.28H49.1681V34.136C49.1681 33.8373 49.1467 33.672 49.1041 33.64C49.0614 33.5973 48.8961 33.576 48.6081 33.576H42.5121C42.2134 33.576 42.0427 33.5973 42.0001 33.64C41.9681 33.672 41.9521 33.8373 41.9521 34.136V35.72C41.9521 36.0187 41.9681 36.1893 42.0001 36.232C42.0427 36.264 42.2134 36.28 42.5121 36.28Z" fill="#FF5E5E"/>
</g>
<defs>
<filter id="filter0_d" x="0.341599" y="0" width="90.551" height="82" filterUnits="userSpaceOnUse" color-interpolation-filters="sRGB">
<feFlood flood-opacity="0" result="BackgroundImageFix"/>
<feColorMatrix in="SourceAlpha" type="matrix" values="0 0 0 0 0 0 0 0 0 0 0 0 0 0 0 0 0 0 127 0"/>
<feOffset dy="4"/>
<feGaussianBlur stdDeviation="2"/>
<feColorMatrix type="matrix" values="0 0 0 0 1 0 0 0 0 0.368627 0 0 0 0 0.368627 0 0 0 0.25 0"/>
<feBlend mode="normal" in2="BackgroundImageFix" result="effect1_dropShadow"/>
<feBlend mode="normal" in="SourceGraphic" in2="effect1_dropShadow" result="shape"/>
</filter>
</defs>
</svg>
