<svg width="91" height="82" viewBox="0 0 91 82" fill="none" xmlns="http://www.w3.org/2000/svg">
<g id="svg-seven" filter="url(#filter0_d)">
<path id="Rectangle 1" d="M5 6C5 3.23857 7.23858 1 10 1H80.551C83.3124 1 85.551 3.23858 85.551 6V68C85.551 70.7614 83.3124 73 80.551 73H10C7.23857 73 5 70.7614 5 68V6Z" stroke="#4A2525" stroke-width="2"/>
<path id="7" d="M47.0619 43V34.12C47.0619 33.8213 47.0406 33.656 46.9979 33.624C46.9659 33.5813 46.8006 33.56 46.5019 33.56H39.5739V31.464H46.9499C47.5579 31.464 48.0752 31.6827 48.5019 32.12C48.9392 32.5467 49.1579 33.064 49.1579 33.672V43H47.0619Z" fill="#FF5E5E"/>
</g>
<defs>
<filter id="filter0_d" x="0" y="0" width="90.551" height="82" filterUnits="userSpaceOnUse" color-interpolation-filters="sRGB">
<feFlood flood-opacity="0" result="BackgroundImageFix"/>
<feColorMatrix in="SourceAlpha" type="matrix" values="0 0 0 0 0 0 0 0 0 0 0 0 0 0 0 0 0 0 127 0"/>
<feOffset dy="4"/>
<feGaussianBlur stdDeviation="2"/>
<feColorMatrix type="matrix" values="0 0 0 0 1 0 0 0 0 0.368627 0 0 0 0 0.368627 0 0 0 0.25 0"/>
<feBlend mode="normal" in2="BackgroundImageFix" result="effect1_dropShadow"/>
<feBlend mode="normal" in="SourceGraphic" in2="effect1_dropShadow" result="shape"/>
</filter>
</defs>
</svg>
