<svg width="91" height="82" viewBox="0 0 91 82" fill="none" xmlns="http://www.w3.org/2000/svg">
<g id="svg-five" filter="url(#filter0_d)">
<path id="Rectangle 1" d="M5.17079 6C5.17079 3.23857 7.40937 1 10.1708 1H80.7218C83.4832 1 85.7218 3.23858 85.7218 6V68C85.7218 70.7614 83.4832 73 80.7218 73H10.1708C7.40936 73 5.17079 70.7614 5.17079 68V6Z" stroke="#4A2525" stroke-width="2"/>
<path id="5" d="M41.9256 43C41.3176 43 40.795 42.7867 40.3576 42.36C39.931 41.9227 39.7176 41.4 39.7176 40.792V40.04H41.8136V40.344C41.8136 40.6427 41.8296 40.8133 41.8616 40.856C41.9043 40.888 42.075 40.904 42.3736 40.904H48.4697C48.7683 40.904 48.9337 40.888 48.9657 40.856C49.0083 40.8133 49.0297 40.6427 49.0297 40.344V38.744C49.0297 38.4453 49.0083 38.28 48.9657 38.248C48.9337 38.2053 48.7683 38.184 48.4697 38.184H39.7176V31.48H51.1257V33.576H42.3736C42.075 33.576 41.9043 33.5973 41.8616 33.64C41.8296 33.672 41.8136 33.8373 41.8136 34.136V35.512C41.8136 35.8107 41.8296 35.9813 41.8616 36.024C41.9043 36.056 42.075 36.072 42.3736 36.072H48.9177C49.5257 36.072 50.043 36.2907 50.4697 36.728C50.907 37.1547 51.1257 37.672 51.1257 38.28V40.792C51.1257 41.4 50.907 41.9227 50.4697 42.36C50.043 42.7867 49.5257 43 48.9177 43H41.9256Z" fill="#FF5E5E"/>
</g>
<defs>
<filter id="filter0_d" x="0.170792" y="0" width="90.551" height="82" filterUnits="userSpaceOnUse" color-interpolation-filters="sRGB">
<feFlood flood-opacity="0" result="BackgroundImageFix"/>
<feColorMatrix in="SourceAlpha" type="matrix" values="0 0 0 0 0 0 0 0 0 0 0 0 0 0 0 0 0 0 127 0"/>
<feOffset dy="4"/>
<feGaussianBlur stdDeviation="2"/>
<feColorMatrix type="matrix" values="0 0 0 0 1 0 0 0 0 0.368627 0 0 0 0 0.368627 0 0 0 0.25 0"/>
<feBlend mode="normal" in2="BackgroundImageFix" result="effect1_dropShadow"/>
<feBlend mode="normal" in="SourceGraphic" in2="effect1_dropShadow" result="shape"/>
</filter>
</defs>
</svg>
