<svg width="91" height="82" viewBox="0 0 91 82" fill="none" xmlns="http://www.w3.org/2000/svg">
<g id="svg-six" filter="url(#filter0_d)">
<path id="Rectangle 1" d="M5.3416 6C5.3416 3.23857 7.58017 1 10.3416 1H80.8926C83.654 1 85.8926 3.23858 85.8926 6V68C85.8926 70.7614 83.654 73 80.8926 73H10.3416C7.58017 73 5.3416 70.7614 5.3416 68V6Z" stroke="#4A2525" stroke-width="2"/>
<path id="6" d="M42.1746 43C41.5666 43 41.0439 42.7867 40.6066 42.36C40.1799 41.9227 39.9666 41.4 39.9666 40.792V33.688C39.9666 33.0693 40.1799 32.5467 40.6066 32.12C41.0439 31.6933 41.5666 31.48 42.1746 31.48H49.5506V33.576H42.6226C42.3239 33.576 42.1532 33.5973 42.1106 33.64C42.0786 33.672 42.0626 33.8373 42.0626 34.136V35.496C42.0626 35.7947 42.0786 35.9653 42.1106 36.008C42.1532 36.04 42.3239 36.056 42.6226 36.056H49.1666C49.7746 36.056 50.2919 36.2747 50.7186 36.712C51.1559 37.1387 51.3746 37.656 51.3746 38.264V40.792C51.3746 41.4 51.1559 41.9227 50.7186 42.36C50.2919 42.7867 49.7746 43 49.1666 43H42.1746ZM42.6226 40.904H48.7186C49.0172 40.904 49.1826 40.888 49.2146 40.856C49.2572 40.8133 49.2786 40.6427 49.2786 40.344V38.728C49.2786 38.4293 49.2572 38.264 49.2146 38.232C49.1826 38.1893 49.0172 38.168 48.7186 38.168H42.0626V40.344C42.0626 40.6427 42.0786 40.8133 42.1106 40.856C42.1532 40.888 42.3239 40.904 42.6226 40.904Z" fill="#FF5E5E"/>
</g>
<defs>
<filter id="filter0_d" x="0.341599" y="0" width="90.551" height="82" filterUnits="userSpaceOnUse" color-interpolation-filters="sRGB">
<feFlood flood-opacity="0" result="BackgroundImageFix"/>
<feColorMatrix in="SourceAlpha" type="matrix" values="0 0 0 0 0 0 0 0 0 0 0 0 0 0 0 0 0 0 127 0"/>
<feOffset dy="4"/>
<feGaussianBlur stdDeviation="2"/>
<feColorMatrix type="matrix" values="0 0 0 0 1 0 0 0 0 0.368627 0 0 0 0 0.368627 0 0 0 0.25 0"/>
<feBlend mode="normal" in2="BackgroundImageFix" result="effect1_dropShadow"/>
<feBlend mode="normal" in="SourceGraphic" in2="effect1_dropShadow" result="shape"/>
</filter>
</defs>
</svg>
