<svg height="100%" width="100%" viewBox="0 0 169 74" fill="none" xmlns="http://www.w3.org/2000/svg">
<g id="svg-clear">
<path id="svg-clear-border" d="M1 6C1 3.23857 3.23858 1 6 1H162.72C165.481 1 167.72 3.23858 167.72 6V68C167.72 70.7614 165.481 73 162.72 73H6C3.23857 73 1 70.7614 1 68V6Z" stroke="#4A2525" stroke-width="2"/>
<path id="svg-clear-text" d="M74.1624 43V33.704C74.1624 33.096 74.381 32.5733 74.8184 32.136C75.2557 31.6987 75.7784 31.48 76.3864 31.48H83.4424C84.061 31.48 84.589 31.6987 85.0264 32.136C85.4637 32.5733 85.6824 33.096 85.6824 33.704V43H83.5544V39.128H76.2744V43H74.1624ZM76.2744 37.016H83.5544V34.168C83.5544 33.8693 83.533 33.704 83.4904 33.672C83.4477 33.6293 83.2824 33.608 82.9944 33.608H76.8344C76.5357 33.608 76.365 33.6293 76.3224 33.672C76.2904 33.704 76.2744 33.8693 76.2744 34.168V37.016ZM89.7294 43C89.1214 43 88.5987 42.7813 88.1614 42.344C87.724 41.9067 87.5054 41.384 87.5054 40.776V33.704C87.5054 33.096 87.724 32.5733 88.1614 32.136C88.5987 31.6987 89.1214 31.48 89.7294 31.48H98.9934V33.608H90.1774C89.8787 33.608 89.708 33.6293 89.6654 33.672C89.6334 33.704 89.6174 33.8693 89.6174 34.168V40.312C89.6174 40.6107 89.6334 40.7813 89.6654 40.824C89.708 40.856 89.8787 40.872 90.1774 40.872H98.9934V43H89.7294Z" fill="#FF5E5E"/>
</g>
</svg>
