<svg viewBox="0 0 83 74" fill="none" xmlns="http://www.w3.org/2000/svg">
<g id="svg-five">
<path id="Rectangle 1" d="M1.17079 6C1.17079 3.23857 3.40937 1 6.17079 1H76.7218C79.4832 1 81.7218 3.23858 81.7218 6V68C81.7218 70.7614 79.4832 73 76.7218 73H6.17079C3.40936 73 1.17079 70.7614 1.17079 68V6Z" stroke="#4A2525" stroke-width="2"/>
<path id="5" d="M37.3692 43C36.7612 43 36.2385 42.7867 35.8012 42.36C35.3745 41.9227 35.1612 41.4 35.1612 40.792V40.04H37.2572V40.344C37.2572 40.6427 37.2732 40.8133 37.3052 40.856C37.3478 40.888 37.5185 40.904 37.8172 40.904H43.9132C44.2118 40.904 44.3772 40.888 44.4092 40.856C44.4518 40.8133 44.4732 40.6427 44.4732 40.344V38.744C44.4732 38.4453 44.4518 38.28 44.4092 38.248C44.3772 38.2053 44.2118 38.184 43.9132 38.184H35.1612V31.48H46.5692V33.576H37.8172C37.5185 33.576 37.3478 33.5973 37.3052 33.64C37.2732 33.672 37.2572 33.8373 37.2572 34.136V35.512C37.2572 35.8107 37.2732 35.9813 37.3052 36.024C37.3478 36.056 37.5185 36.072 37.8172 36.072H44.3612C44.9692 36.072 45.4865 36.2907 45.9132 36.728C46.3505 37.1547 46.5692 37.672 46.5692 38.28V40.792C46.5692 41.4 46.3505 41.9227 45.9132 42.36C45.4865 42.7867 44.9692 43 44.3612 43H37.3692Z" fill="#FF5E5E"/>
</g>
</svg>
