<svg height="100%" width="100%" viewBox="0 0 83 74" fill="none" xmlns="http://www.w3.org/2000/svg">
<g id="svg-three">
<path id="Rectangle 1" d="M1.3416 6C1.3416 3.23857 3.58017 1 6.3416 1H76.8926C79.654 1 81.8926 3.23858 81.8926 6V68C81.8926 70.7614 79.654 73 76.8926 73H6.34159C3.58017 73 1.3416 70.7614 1.3416 68V6Z" stroke="#4A2525" stroke-width="2"/>
<path id="3" d="M37.5232 42C36.9046 42 36.3766 41.7867 35.9392 41.36C35.5126 40.9227 35.2992 40.4 35.2992 39.792V39.104H37.3952V39.344C37.3952 39.6427 37.4112 39.8133 37.4432 39.856C37.4859 39.888 37.6566 39.904 37.9552 39.904H44.0672C44.3552 39.904 44.5206 39.888 44.5632 39.856C44.6059 39.8133 44.6272 39.6427 44.6272 39.344V37.776C44.6272 37.488 44.6059 37.3227 44.5632 37.28C44.5206 37.2373 44.3552 37.216 44.0672 37.216H37.2832V35.12H43.6032C43.9019 35.12 44.0672 35.104 44.0992 35.072C44.1419 35.0293 44.1632 34.8587 44.1632 34.56V33.136C44.1632 32.8373 44.1419 32.672 44.0992 32.64C44.0672 32.5973 43.9019 32.576 43.6032 32.576H37.9552C37.6566 32.576 37.4859 32.5973 37.4432 32.64C37.4112 32.672 37.3952 32.8373 37.3952 33.136V33.52H35.2992V32.688C35.2992 32.0693 35.5126 31.5467 35.9392 31.12C36.3766 30.6933 36.9046 30.48 37.5232 30.48H44.0512C44.6699 30.48 45.1926 30.6933 45.6192 31.12C46.0459 31.5467 46.2592 32.0693 46.2592 32.688V35.024C46.2592 35.152 46.2486 35.2853 46.2272 35.424C46.2059 35.552 46.1739 35.6747 46.1312 35.792C46.3232 35.9947 46.4672 36.2347 46.5632 36.512C46.6699 36.7787 46.7232 37.0507 46.7232 37.328V39.792C46.7232 40.4 46.5046 40.9227 46.0672 41.36C45.6406 41.7867 45.1232 42 44.5152 42H37.5232Z" fill="#FF5E5E"/>
</g>
</svg>
