<svg height="100%" width="100%" viewBox="0 0 83 74" fill="none" xmlns="http://www.w3.org/2000/svg">
<g id="svg-nine">
<path id="Rectangle 1" d="M1.3416 6C1.3416 3.23857 3.58017 1 6.3416 1H76.8926C79.654 1 81.8926 3.23858 81.8926 6V68C81.8926 70.7614 79.654 73 76.8926 73H6.34159C3.58017 73 1.3416 70.7614 1.3416 68V6Z" stroke="#4A2525" stroke-width="2"/>
<path id="9" d="M37.5076 43C36.9743 43 36.4996 42.7973 36.0836 42.392C35.6676 41.9867 35.4009 41.4907 35.2836 40.904H44.0516C44.3396 40.904 44.5049 40.888 44.5476 40.856C44.5903 40.8133 44.6116 40.6427 44.6116 40.344V38.936C44.6116 38.648 44.5903 38.488 44.5476 38.456C44.5049 38.4133 44.3396 38.392 44.0516 38.392H37.5076C36.8889 38.392 36.3609 38.1733 35.9236 37.736C35.4969 37.2987 35.2836 36.776 35.2836 36.168V33.688C35.2836 33.0693 35.4969 32.5467 35.9236 32.12C36.3609 31.6933 36.8889 31.48 37.5076 31.48H44.4996C45.1076 31.48 45.6249 31.6933 46.0516 32.12C46.4889 32.5467 46.7076 33.0693 46.7076 33.688V40.792C46.7076 41.4 46.4889 41.9227 46.0516 42.36C45.6249 42.7867 45.1076 43 44.4996 43H37.5076ZM37.9556 36.28H44.6116V34.136C44.6116 33.8373 44.5903 33.672 44.5476 33.64C44.5049 33.5973 44.3396 33.576 44.0516 33.576H37.9556C37.6569 33.576 37.4863 33.5973 37.4436 33.64C37.4116 33.672 37.3956 33.8373 37.3956 34.136V35.72C37.3956 36.0187 37.4116 36.1893 37.4436 36.232C37.4863 36.264 37.6569 36.28 37.9556 36.28Z" fill="#FF5E5E"/>
</g>
</svg>
