<svg viewBox="0 0 169 74" fill="none" xmlns="http://www.w3.org/2000/svg">
<g id="svg-zero">
<path id="Rectangle 1" d="M1 6C1 3.23857 3.23858 1 6 1H162.722C165.483 1 167.722 3.23858 167.722 6V68C167.722 70.7614 165.483 73 162.722 73H6C3.23858 73 1 70.7614 1 68V6Z" stroke="#4A2525" stroke-width="2"/>
<path id="0" d="M80.5831 43C79.9751 43 79.4524 42.7653 79.0151 42.296C78.5884 41.8267 78.3751 41.2933 78.3751 40.696V33.736C78.3751 33.1173 78.5884 32.5893 79.0151 32.152C79.4524 31.704 79.9751 31.48 80.5831 31.48H87.5751C88.1831 31.48 88.7004 31.704 89.1271 32.152C89.5644 32.5893 89.7831 33.1173 89.7831 33.736V40.696C89.7831 41.2933 89.5644 41.8267 89.1271 42.296C88.7004 42.7653 88.1831 43 87.5751 43H80.5831ZM81.4311 40.792H87.1271C87.4258 40.792 87.5911 40.776 87.6231 40.744C87.6658 40.7013 87.6871 40.5307 87.6871 40.232V35.576L81.4311 40.792ZM80.4711 38.84L86.7271 33.624H81.0311C80.7324 33.624 80.5618 33.6453 80.5191 33.688C80.4871 33.72 80.4711 33.8853 80.4711 34.184V38.84Z" fill="#FF5E5E"/>
</g>
</svg>
