<svg height="100%" width="100%" viewBox="0 0 83 74" fill="none" xmlns="http://www.w3.org/2000/svg">
<g id="svg-seven">
<path id="Rectangle 1" d="M1 6C1 3.23857 3.23858 1 6 1H76.551C79.3124 1 81.551 3.23858 81.551 6V68C81.551 70.7614 79.3124 73 76.551 73H6C3.23857 73 1 70.7614 1 68V6Z" stroke="#4A2525" stroke-width="2"/>
<path id="7" d="M43.4104 43V34.12C43.4104 33.8213 43.3891 33.656 43.3464 33.624C43.3144 33.5813 43.1491 33.56 42.8504 33.56H35.9224V31.464H43.2984C43.9064 31.464 44.4237 31.6827 44.8504 32.12C45.2877 32.5467 45.5064 33.064 45.5064 33.672V43H43.4104Z" fill="#FF5E5E"/>
</g>
</svg>
