<svg height="100%" width="100%" viewBox="0 0 83 74" fill="none" xmlns="http://www.w3.org/2000/svg">
<g id="svg-two">
<path id="Rectangle 1" d="M1.17079 6C1.17079 3.23857 3.40937 1 6.17079 1H76.7218C79.4832 1 81.7218 3.23858 81.7218 6V68C81.7218 70.7614 79.4832 73 76.7218 73H6.17079C3.40936 73 1.17079 70.7614 1.17079 68V6Z" stroke="#4A2525" stroke-width="2"/>
<path id="2" d="M35.1612 42V37.584C35.1612 36.976 35.3745 36.4587 35.8012 36.032C36.2385 35.5947 36.7612 35.376 37.3692 35.376H43.9132C44.2118 35.376 44.3772 35.36 44.4092 35.328C44.4518 35.2853 44.4732 35.1147 44.4732 34.816V33.136C44.4732 32.8373 44.4518 32.672 44.4092 32.64C44.3772 32.5973 44.2118 32.576 43.9132 32.576H37.8172C37.5185 32.576 37.3478 32.5973 37.3052 32.64C37.2732 32.672 37.2572 32.8373 37.2572 33.136V33.552H35.1612V32.688C35.1612 32.0693 35.3745 31.5467 35.8012 31.12C36.2385 30.6933 36.7612 30.48 37.3692 30.48H44.3612C44.9692 30.48 45.4865 30.6933 45.9132 31.12C46.3505 31.5467 46.5692 32.0693 46.5692 32.688V35.28C46.5692 35.888 46.3505 36.4107 45.9132 36.848C45.4865 37.2747 44.9692 37.488 44.3612 37.488H37.8172C37.5185 37.488 37.3478 37.5093 37.3052 37.552C37.2732 37.584 37.2572 37.7493 37.2572 38.048V39.344C37.2572 39.6427 37.2732 39.8133 37.3052 39.856C37.3478 39.888 37.5185 39.904 37.8172 39.904H46.5692V42H35.1612Z" fill="#FF5E5E"/>
</g>
</svg>
