<svg height="100%" width="100%" viewBox="0 0 83 74" fill="none" xmlns="http://www.w3.org/2000/svg">
<g id="svg-six">
<path id="Rectangle 1" d="M1.3416 6C1.3416 3.23857 3.58017 1 6.3416 1H76.8926C79.654 1 81.8926 3.23858 81.8926 6V68C81.8926 70.7614 79.654 73 76.8926 73H6.34159C3.58017 73 1.3416 70.7614 1.3416 68V6Z" stroke="#4A2525" stroke-width="2"/>
<path id="6" d="M37.6181 43C37.0101 43 36.4874 42.7867 36.0501 42.36C35.6234 41.9227 35.4101 41.4 35.4101 40.792V33.688C35.4101 33.0693 35.6234 32.5467 36.0501 32.12C36.4874 31.6933 37.0101 31.48 37.6181 31.48H44.9941V33.576H38.0661C37.7674 33.576 37.5968 33.5973 37.5541 33.64C37.5221 33.672 37.5061 33.8373 37.5061 34.136V35.496C37.5061 35.7947 37.5221 35.9653 37.5541 36.008C37.5968 36.04 37.7674 36.056 38.0661 36.056H44.6101C45.2181 36.056 45.7354 36.2747 46.1621 36.712C46.5994 37.1387 46.8181 37.656 46.8181 38.264V40.792C46.8181 41.4 46.5994 41.9227 46.1621 42.36C45.7354 42.7867 45.2181 43 44.6101 43H37.6181ZM38.0661 40.904H44.1621C44.4608 40.904 44.6261 40.888 44.6581 40.856C44.7008 40.8133 44.7221 40.6427 44.7221 40.344V38.728C44.7221 38.4293 44.7008 38.264 44.6581 38.232C44.6261 38.1893 44.4608 38.168 44.1621 38.168H37.5061V40.344C37.5061 40.6427 37.5221 40.8133 37.5541 40.856C37.5968 40.888 37.7674 40.904 38.0661 40.904Z" fill="#FF5E5E"/>
</g>
</svg>
