<svg height="100%" width="100%" viewBox="0 0 83 74" fill="none" xmlns="http://www.w3.org/2000/svg">
<g id="svg-eight">
<path id="Rectangle 1" d="M1.17079 6C1.17079 3.23857 3.40937 1 6.17079 1H76.7218C79.4832 1 81.7218 3.23858 81.7218 6V68C81.7218 70.7614 79.4832 73 76.7218 73H6.17079C3.40936 73 1.17079 70.7614 1.17079 68V6Z" stroke="#4A2525" stroke-width="2"/>
<path id="8" d="M37.3379 43C36.7299 43 36.2073 42.7867 35.7699 42.36C35.3433 41.9227 35.1299 41.4 35.1299 40.792V38.28C35.1299 38.088 35.1619 37.896 35.2259 37.704C35.2899 37.5013 35.3699 37.3093 35.4659 37.128C35.3699 36.9467 35.2899 36.76 35.2259 36.568C35.1619 36.3653 35.1299 36.1627 35.1299 35.96V33.688C35.1299 33.0693 35.3433 32.5467 35.7699 32.12C36.2073 31.6933 36.7299 31.48 37.3379 31.48H44.3299C44.8633 31.48 45.3379 31.656 45.7539 32.008C46.1806 32.36 46.4419 32.7867 46.5379 33.288V35.96C46.5379 36.152 46.5059 36.3493 46.4419 36.552C46.3886 36.7547 46.3086 36.9467 46.2019 37.128C46.3193 37.3093 46.4046 37.496 46.4579 37.688C46.5113 37.88 46.5379 38.0773 46.5379 38.28V40.792C46.5379 41.4 46.3193 41.9227 45.8819 42.36C45.4553 42.7867 44.9379 43 44.3299 43H37.3379ZM37.7859 40.904H43.8819C44.1806 40.904 44.3459 40.888 44.3779 40.856C44.4206 40.8133 44.4419 40.6427 44.4419 40.344V38.744C44.4419 38.4453 44.4206 38.28 44.3779 38.248C44.3459 38.2053 44.1806 38.184 43.8819 38.184H37.7859C37.4873 38.184 37.3166 38.2053 37.2739 38.248C37.2419 38.28 37.2259 38.4453 37.2259 38.744V40.344C37.2259 40.6427 37.2419 40.8133 37.2739 40.856C37.3166 40.888 37.4873 40.904 37.7859 40.904ZM37.7859 36.248H43.8819C44.1806 36.248 44.3459 36.2267 44.3779 36.184C44.4206 36.1413 44.4419 35.976 44.4419 35.688V34.152C44.4419 33.8533 44.4206 33.688 44.3779 33.656C44.3459 33.6133 44.1806 33.592 43.8819 33.592H37.7859C37.4873 33.592 37.3166 33.6133 37.2739 33.656C37.2419 33.688 37.2259 33.8533 37.2259 34.152V35.688C37.2259 35.976 37.2419 36.1413 37.2739 36.184C37.3166 36.2267 37.4873 36.248 37.7859 36.248Z" fill="#FF5E5E"/>
</g>
</svg>
